<svg class="svg-icon" style="width: 1em; height: 1em;vertical-align: middle;fill: currentColor;overflow: hidden;" viewBox="0 0 1024 1024" version="1.1" xmlns="http://www.w3.org/2000/svg"><path d="M417.229 256.588m-192.72 0a192.72 192.72 0 1 0 385.44 0 192.72 192.72 0 1 0-385.44 0Z"  /><path d="M714.829 496.064c-29.213-37.949-70.992-66.038-115.648-79.346-47.087 45.663-111.178 73.887-181.949 73.887-67.069 0-128.045-25.462-174.335-66.968-57.491 23.29-107.479 71-127.581 131.894l-17.36 52.577c-39.425 119.418 28.89 240.404 161.203 240.404h234.086c-9.473-27.376-14.871-56.65-14.871-87.247-0.001-137.134 103.396-249.986 236.455-265.201z"  /><path d="M749.42 574.946c-104.54 0-189.286 84.746-189.286 189.286S644.88 953.518 749.42 953.518s189.286-84.746 189.286-189.286S853.96 574.946 749.42 574.946z m131.76 212.992H775.677v105.504c0 13.709-11.115 24.824-24.824 24.824s-24.824-11.115-24.824-24.824V787.938H620.524c-13.709 0-24.824-11.115-24.824-24.824s11.115-24.824 24.824-24.824h105.504V632.786c0-13.709 11.115-24.824 24.824-24.824s24.824 11.115 24.824 24.824V738.29H881.18c13.709 0 24.824 11.115 24.824 24.824s-11.114 24.824-24.824 24.824z"  /></svg>