<svg class="svg-icon" style="width: 1.2490234375em;height: 1em;vertical-align: middle;fill: currentColor;overflow: hidden;" viewBox="0 0 1279 1024" version="1.1" xmlns="http://www.w3.org/2000/svg"><path d="M447.98936 511.98784c141.396642 0 255.99392-114.597278 255.99392-255.99392S589.386002 0 447.98936 0 191.99544 114.597278 191.99544 255.99392s114.597278 255.99392 255.99392 255.99392z m179.195744 63.99848h-33.399206c-44.398946 20.399516-93.797772 31.99924-145.796538 31.99924s-101.197597-11.599725-145.796537-31.99924h-33.399207C120.397141 575.98632 0 696.383461 0 844.779936V927.977961c0 52.998741 42.998979 95.99772 95.99772 95.99772h549.786943c-4.799886-13.599677-6.799839-27.999335-5.199877-42.598989l13.599677-121.797107 2.399943-22.199473 15.799625-15.799625 154.596328-154.596328c-48.998836-55.398684-119.99715-90.997839-199.795255-90.997839z m90.597849 290.593099l-13.599677 121.997102c-2.199948 20.399516 14.999644 37.599107 35.199164 35.199164l121.797107-13.599677 275.79345-275.79345-143.396594-143.396594-275.79345 275.593455zM1265.969933 537.787228L1190.171733 461.989028c-18.599558-18.599558-48.998836-18.599558-67.598394 0l-75.598205 75.598204-8.199805 8.199806 143.59659 143.396594 83.598014-83.598015c18.599558-18.799554 18.599558-48.998836 0-67.798389z"  /></svg>